<svg id="Layer_1" data-name="Layer 1" xmlns="http://www.w3.org/2000/svg" viewBox="0 0 277.46 277.46"><defs><style>.cls-1{fill:#f5f5f5;}.cls-2{fill:#a11d21;}.cls-3{fill:#231f20;}</style></defs><circle class="cls-1" cx="138.73" cy="138.73" r="138.73"/><rect class="cls-2" x="124.99" y="135.63" width="28.13" height="9.3"/><path class="cls-2" d="M399.5,332.75H284a13.2,13.2,0,0,0-13.19,13.19v38.67A13.2,13.2,0,0,0,284,397.8h18.89v-9.3H284a3.89,3.89,0,0,1-3.89-3.89V345.94a3.89,3.89,0,0,1,3.89-3.89H399.5a3.9,3.9,0,0,1,3.89,3.89v38.67a3.89,3.89,0,0,1-3.89,3.89H380.74v9.3H399.5a13.21,13.21,0,0,0,13.19-13.19V345.94A13.21,13.21,0,0,0,399.5,332.75Z" transform="translate(-203.01 -252.87)"/><rect class="cls-2" x="124.99" y="136.36" width="28.13" height="9.3"/><path class="cls-2" d="M380.74,389.24v9.3h10.4v50a7,7,0,0,1-7.14,6.86H298.35a7,7,0,0,1-7.15-6.86v-50h11.69v-9.3H288.41a6.77,6.77,0,0,0-6.89,6.62v52.7c0,8.91,7.55,16.16,16.83,16.16H384c9.28,0,16.83-7.25,16.83-16.16V389.24Z" transform="translate(-203.01 -252.87)"/><path class="cls-2" d="M364.31,339.66c-7.22-11-14.17-16.52-20.65-16.52S330.23,328.7,323,339.66l-7.76-5.12c9.18-13.93,18.48-20.7,28.42-20.7s19.24,6.77,28.42,20.7Z" transform="translate(-203.01 -252.87)"/><path class="cls-2" d="M332.88,410.19H297.52V374.83h35.36Zm-26.62-8.74h17.88V383.57H306.26Z" transform="translate(-203.01 -252.87)"/><path class="cls-2" d="M385.61,410.93H350.25V375.57h35.36ZM359,402.19h17.87V384.31H359Z" transform="translate(-203.01 -252.87)"/><path class="cls-3" d="M281.2,387.37a3.88,3.88,0,0,1-1.15-2.76V345.94a3.89,3.89,0,0,1,3.89-3.89h115.5a3.89,3.89,0,0,1,3.89,3.89v38.67a3.88,3.88,0,0,1-1.15,2.76h10.16a13.18,13.18,0,0,0,.29-2.76V345.94a13.21,13.21,0,0,0-13.19-13.19H283.94a13.21,13.21,0,0,0-13.19,13.19v38.67a13.19,13.19,0,0,0,.3,2.76Z" transform="translate(-203.01 -252.87)"/><path class="cls-3" d="M364.26,339.66c-7.23-11-14.18-16.52-20.66-16.52S330.17,328.7,323,339.66l-7.77-5.12c9.19-13.93,18.48-20.7,28.42-20.7s19.24,6.77,28.43,20.7Z" transform="translate(-203.01 -252.87)"/><polygon class="cls-3" points="103.19 134.49 103.19 130.7 121.07 130.7 121.07 134.49 129.81 134.49 129.81 121.96 94.45 121.96 94.45 134.49 103.19 134.49"/><polygon class="cls-3" points="155.93 134.49 155.93 131.44 173.8 131.44 173.8 134.49 182.54 134.49 182.54 122.7 147.19 122.7 147.19 134.49 155.93 134.49"/></svg>