<svg id="Layer_1" data-name="Layer 1" xmlns="http://www.w3.org/2000/svg" viewBox="0 0 277.46 277.46"><defs><style>.cls-1{fill:#f5f5f5;}.cls-2{fill:#a11d21;}.cls-3{fill:#231f20;}</style></defs><circle class="cls-1" cx="138.73" cy="138.73" r="138.73"/><path class="cls-2" d="M286,357.74c13.93,43.45-37.11,71.9,23.31,99.77l12.86,4.36c-28.37-38,15.53-28.63,10.44-59.51,0,0,4.06,22.81,7.75,26.52,4,4,29.83-44.16,19.71-43.62,34.62,49.2,28,64.2,6.15,74.21,52.39-8.32,76.78-58.06,29.22-120.3,2.93,13.49,2.52,24.82-6.75,30.67,1.49-16.21-14.08-38.33-45-65.75,3.42,28.31-10.13,60.8-32.84,86L286,357.74Z" transform="translate(-203.01 -252.87)"/><path class="cls-3" d="M282.91,403.43H332.8c-.05-.35-.09-.71-.15-1.07,0,0,.07.39.2,1.07h25c2.63-5.91,4.5-11.45,4.58-14.82q5.51,8,9.52,14.82h49c.39-18.52-7.27-40.48-25.45-64.26,2.93,13.49,2.52,24.82-6.75,30.67,1.49-16.21-14.08-38.33-45-65.75,3.42,28.31-10.13,60.8-32.84,86L286,357.74C291.59,375.05,286.83,390,282.91,403.43Z" transform="translate(-203.01 -252.87)"/></svg>