<svg id="Layer_1" data-name="Layer 1" xmlns="http://www.w3.org/2000/svg" viewBox="0 0 277.46 277.46"><defs><style>.cls-1{fill:#f5f5f5;}.cls-2{fill:none;stroke:#a11d21;stroke-linecap:round;stroke-linejoin:round;stroke-width:12.38px;}.cls-3{fill:#231f20;}</style></defs><circle class="cls-1" cx="138.73" cy="138.73" r="138.73"/><polygon class="cls-2" points="161.3 62 161.3 62.02 147.83 76.41 161.28 62 161.3 62"/><path class="cls-2" d="M347.47,389.17a45.93,45.93,0,1,1-45.93-45.93A45.92,45.92,0,0,1,347.47,389.17Z" transform="translate(-203.01 -252.87)"/><line class="cls-2" x1="161.28" y1="62" x2="127.6" y2="65.49"/><line class="cls-2" x1="161.3" y1="62.02" x2="160.1" y2="95.86"/><polyline class="cls-2" points="161.28 62 161.3 61.98 161.3 62"/><line class="cls-2" x1="147.83" y1="76.41" x2="127.63" y2="98.06"/><polygon class="cls-2" points="210.9 104.05 210.9 104.06 197.43 118.46 210.89 104.05 210.9 104.05"/><path class="cls-2" d="M397.08,431.21a45.93,45.93,0,1,1-45.93-45.92A45.93,45.93,0,0,1,397.08,431.21Z" transform="translate(-203.01 -252.87)"/><line class="cls-2" x1="210.89" y1="104.05" x2="177.21" y2="107.54"/><line class="cls-2" x1="210.9" y1="104.07" x2="209.71" y2="137.91"/><polyline class="cls-2" points="210.89 104.05 210.9 104.03 210.9 104.05"/><line class="cls-2" x1="197.43" y1="118.46" x2="177.23" y2="140.11"/><path class="cls-3" d="M351,335.36A6.18,6.18,0,0,1,346.43,325l13.46-14.41a6.2,6.2,0,0,1,10.73,4.22v0A6.17,6.17,0,0,1,369,319L355.48,333.4A6.15,6.15,0,0,1,351,335.36Z" transform="translate(-203.01 -252.87)"/><path class="cls-3" d="M263.6,400.42a39.73,39.73,0,1,1,76.14,0h12.78a52.12,52.12,0,1,0-101.7,0Z" transform="translate(-203.01 -252.87)"/><path class="cls-3" d="M330.73,324.44a6.19,6.19,0,0,1-.63-12.35l33.68-3.49a6.19,6.19,0,0,1,1.27,12.32l-33.68,3.49C331.16,324.43,330.94,324.44,330.73,324.44Z" transform="translate(-203.01 -252.87)"/><path class="cls-3" d="M330.73,357a6.2,6.2,0,0,1-4.52-10.42l20.23-21.63a6.19,6.19,0,1,1,9,8.46L335.26,355A6.19,6.19,0,0,1,330.73,357Z" transform="translate(-203.01 -252.87)"/><path class="cls-3" d="M363.24,354.81H363a6.19,6.19,0,0,1-6-6.41l1.19-33.84a6.19,6.19,0,1,1,12.38.44l-1.2,33.84A6.19,6.19,0,0,1,363.24,354.81Z" transform="translate(-203.01 -252.87)"/><path class="cls-3" d="M330.76,357a6.2,6.2,0,0,1-4.53-10.42L346.43,325a6.19,6.19,0,0,1,9.06,8.45l-20.2,21.65A6.16,6.16,0,0,1,330.76,357Z" transform="translate(-203.01 -252.87)"/><path class="cls-3" d="M400.57,377.41A6.18,6.18,0,0,1,396,367l13.46-14.41a6.2,6.2,0,0,1,10.73,4.22v0a6.21,6.21,0,0,1-1.67,4.23l-13.47,14.39A6.15,6.15,0,0,1,400.57,377.41Z" transform="translate(-203.01 -252.87)"/><path class="cls-3" d="M326.05,400.42a39.67,39.67,0,0,1,50.44,0h16.87a52,52,0,0,0-84.18,0Z" transform="translate(-203.01 -252.87)"/><path class="cls-3" d="M380.34,366.49a6.19,6.19,0,0,1-.64-12.35l33.68-3.49A6.19,6.19,0,1,1,414.66,363L381,366.46Z" transform="translate(-203.01 -252.87)"/><path class="cls-3" d="M380.34,399a6.19,6.19,0,0,1-4.52-10.42L396.05,367a6.19,6.19,0,1,1,9,8.46l-20.23,21.63A6.15,6.15,0,0,1,380.34,399Z" transform="translate(-203.01 -252.87)"/><path class="cls-3" d="M412.85,396.86h-.23a6.2,6.2,0,0,1-6-6.41l1.2-33.84a6.19,6.19,0,1,1,12.38.44L419,390.89A6.19,6.19,0,0,1,412.85,396.86Z" transform="translate(-203.01 -252.87)"/><path class="cls-3" d="M380.37,399.07a6.2,6.2,0,0,1-4.53-10.42L396,367a6.19,6.19,0,0,1,9,8.45l-20.2,21.65A6.18,6.18,0,0,1,380.37,399.07Z" transform="translate(-203.01 -252.87)"/></svg>