<svg id="Layer_1" data-name="Layer 1" xmlns="http://www.w3.org/2000/svg" xmlns:xlink="http://www.w3.org/1999/xlink" viewBox="0 0 739.88 679.47"><defs><style>.cls-1,.cls-5{fill:none;}.cls-1{stroke:#f5f5f5;stroke-miterlimit:10;stroke-width:30px;}.cls-2{clip-path:url(#clip-path);}.cls-3{fill:#a11d21;}.cls-4{fill:#231f20;}.cls-5{stroke:#fff;stroke-linecap:round;stroke-linejoin:round;stroke-width:12.38px;}</style><clipPath id="clip-path" transform="translate(-12.15 -46.11)"><circle class="cls-1" cx="341.75" cy="391.61" r="138.73"/></clipPath></defs><g class="cls-2"><path class="cls-3" d="M67.51,385.6a173.06,173.06,0,0,1,12.24,14L62.16,376.82c23.58,30.53,38.18,67.09,57.28,100.39,24.27,42.34,52.77,81.35,82.73,119.81,13.68,17.57,29,33.85,42.56,51.46l-17.59-22.77A102.75,102.75,0,0,1,240,647.06l-11.34-26.87c.83,2.06,1.58,4.14,2.25,6.26l205.62-86.68Q356.42,423,270.06,310.67q-32.64-42.43-65.79-84.46l-109.46,188a57.5,57.5,0,0,1,7.67,2.56L75.6,405.45a75,75,0,0,1,15.2,9.32L68,397.18c21.66,17.28,39.79,39.57,56.67,61.39l-17.6-22.76c21.84,28.37,42,58.07,62.53,87.36l65.77,93.66,37.18,52.94a85,85,0,0,0,29,31.57,84.77,84.77,0,0,0,38.26,20.13,85.19,85.19,0,0,0,44.86,2,83.56,83.56,0,0,0,41.83-13.35l22.77-17.59a112.41,112.41,0,0,0,28.93-49.64l4-29.91a112.14,112.14,0,0,0-15.36-56.78L371.92,421C337,371.25,303.07,320.14,263.16,274.16a358.37,358.37,0,0,0-28.52-29.68,270.46,270.46,0,0,0-36.93-28.74,71.47,71.47,0,0,0-8.55-4.57c-11.07-5.09-22.62-10.82-34.53-13.89l-29.91-4A84.57,84.57,0,0,0,81.38,203a56.12,56.12,0,0,0-24.82,14.46,85.09,85.09,0,0,0-29,31.57L16.24,275.85l-4,29.91a84.8,84.8,0,0,0,9.69,43.34,84.35,84.35,0,0,0,23.26,36.21q21,26.51,41.71,53.27L69.29,415.81q70,90.68,136,184.34,18.65,26.48,37,53.18a85,85,0,0,0,29,31.56A84.61,84.61,0,0,0,309.47,705l29.91,4a84.77,84.77,0,0,0,43.34-9.69,56.23,56.23,0,0,0,24.83-14.47,85,85,0,0,0,29-31.56l11.34-26.88a113.24,113.24,0,0,0,0-59.81C442.71,550.3,436,533.37,426.32,519c-9.83-14.7-21.12-28.55-32.68-41.94-11.85-13.73-23.48-27.59-34.58-41.93l17.59,22.76a836.81,836.81,0,0,1-56.12-82.54c-16.43-27.59-29.84-56.76-45.87-84.54a254.12,254.12,0,0,0-14.16-22.1c-10.51-14.52-21.31-29.29-33.89-42.16a84.26,84.26,0,0,0-36.21-23.26,84.57,84.57,0,0,0-43.34-9.69,84.57,84.57,0,0,0-43.34,9.69A84.26,84.26,0,0,0,67.51,226.5L49.92,249.27a111.89,111.89,0,0,0-15.36,56.78l4,29.9A112.4,112.4,0,0,0,67.51,385.6Z" transform="translate(-12.15 -46.11)"/><rect class="cls-4" x="308.65" y="120.48" width="369.01" height="369.01" transform="translate(419.69 -317.72) rotate(52.2)"/></g><circle class="cls-1" cx="329.59" cy="345.5" r="138.73"/><polygon class="cls-5" points="352.16 268.76 352.16 268.78 338.69 283.18 352.14 268.76 352.16 268.76"/><path class="cls-5" d="M347.47,389.17a45.93,45.93,0,1,1-45.93-45.93A45.92,45.92,0,0,1,347.47,389.17Z" transform="translate(-12.15 -46.11)"/><line class="cls-5" x1="352.14" y1="268.76" x2="318.46" y2="272.26"/><polyline class="cls-5" points="352.16 268.76 352.18 268.76 352.16 268.78"/><line class="cls-5" x1="338.69" y1="283.18" x2="318.46" y2="304.8"/><line class="cls-5" x1="352.16" y1="268.78" x2="350.96" y2="302.62"/><polyline class="cls-5" points="352.14 268.76 352.16 268.75 352.16 268.76"/><line class="cls-5" x1="338.69" y1="283.18" x2="318.49" y2="304.83"/><polygon class="cls-5" points="401.76 310.81 401.76 310.83 388.29 325.23 401.75 310.81 401.76 310.81"/><path class="cls-5" d="M397.08,431.21a45.93,45.93,0,1,1-45.93-45.92A45.93,45.93,0,0,1,397.08,431.21Z" transform="translate(-12.15 -46.11)"/><line class="cls-5" x1="401.75" y1="310.81" x2="368.07" y2="314.31"/><polyline class="cls-5" points="401.76 310.81 401.78 310.81 401.76 310.83"/><line class="cls-5" x1="388.29" y1="325.23" x2="368.07" y2="346.85"/><line class="cls-5" x1="401.76" y1="310.83" x2="400.57" y2="344.67"/><polyline class="cls-5" points="401.75 310.81 401.76 310.8 401.76 310.81"/><line class="cls-5" x1="388.29" y1="325.23" x2="368.09" y2="346.88"/></svg>