<svg id="Layer_1" data-name="Layer 1" xmlns="http://www.w3.org/2000/svg" viewBox="0 0 277.46 277.46"><defs><style>.cls-1{fill:#f5f5f5;}.cls-2{fill:none;stroke:#a11d21;stroke-linecap:round;stroke-linejoin:round;stroke-width:6.37px;}.cls-3{fill:#231f20;}</style></defs><circle class="cls-1" cx="138.73" cy="138.73" r="138.73"/><path class="cls-2" d="M281.14,424.36l35.37-22.11a7,7,0,0,1,5.4-.84l43.29,11a2.27,2.27,0,0,1,1.41,3.33l-5,8.59-28.44-6L363.38,427l32.51-17.71c6.42-1.15,14.72,4.47,16.62,6.09L362,456.87a12.43,12.43,0,0,1-10.32,2.58l-41.19-8.24a8,8,0,0,0-4.24.31l-25.14,9.08Z" transform="translate(-203.01 -252.87)"/><line class="cls-2" x1="97.86" y1="159.15" x2="97.86" y2="99.64"/><polyline class="cls-2" points="126.53 150.48 126.53 102.26 168.23 102.26 168.23 167.53"/><line class="cls-2" x1="196.96" y1="156.49" x2="196.96" y2="99.64"/><line class="cls-2" x1="84.71" y1="109.25" x2="147.38" y2="56.85"/><line class="cls-2" x1="210.05" y1="109.25" x2="147.38" y2="56.85"/><path class="cls-3" d="M304.06,377V352.25a3.19,3.19,0,1,0-6.37,0V377Z" transform="translate(-203.01 -252.87)"/><path class="cls-3" d="M332.73,377V358.05h35.33V377h6.36V354.87a3.18,3.18,0,0,0-3.18-3.19h-41.7a3.18,3.18,0,0,0-3.18,3.19V377Z" transform="translate(-203.01 -252.87)"/><path class="cls-3" d="M403.16,377V352.25a3.19,3.19,0,1,0-6.37,0V377Z" transform="translate(-203.01 -252.87)"/><path class="cls-3" d="M287.72,365a3.19,3.19,0,0,1-2-5.63L348.35,307a3.18,3.18,0,0,1,4.08,4.88L289.76,364.3A3.15,3.15,0,0,1,287.72,365Z" transform="translate(-203.01 -252.87)"/><path class="cls-3" d="M413.06,365a3.17,3.17,0,0,1-2-.74l-62.67-52.41a3.18,3.18,0,0,1,4.08-4.88l62.67,52.4a3.18,3.18,0,0,1-2,5.63Z" transform="translate(-203.01 -252.87)"/></svg>