<svg id="Layer_1" data-name="Layer 1" xmlns="http://www.w3.org/2000/svg" viewBox="0 0 277.46 277.46"><defs><style>.cls-1{fill:#f5f5f5;}.cls-2,.cls-3{fill:none;stroke:#a11d21;stroke-linecap:round;stroke-linejoin:round;}.cls-2{stroke-width:10px;}.cls-3{stroke-width:8.54px;}.cls-4{fill:#231f20;}</style></defs><circle class="cls-1" cx="138.73" cy="138.73" r="138.73"/><path class="cls-2" d="M281.14,424.36l35.37-22.11a7,7,0,0,1,5.4-.84l43.29,11a2.27,2.27,0,0,1,1.41,3.33l-5,8.59-28.44-6L363.38,427l32.51-17.71c6.42-1.15,14.72,4.47,16.62,6.09L362,456.87a12.43,12.43,0,0,1-10.32,2.58l-41.19-8.24a8,8,0,0,0-4.24.31l-25.14,9.08Z" transform="translate(-203.01 -252.87)"/><line class="cls-2" x1="97.86" y1="159.15" x2="97.86" y2="99.64"/><polyline class="cls-3" points="126.53 148.03 126.53 112.85 168.23 112.85 168.23 160.47"/><line class="cls-2" x1="196.96" y1="156.49" x2="196.96" y2="99.64"/><line class="cls-2" x1="84.71" y1="109.16" x2="147.38" y2="40.06"/><line class="cls-2" x1="210.05" y1="109.16" x2="147.38" y2="40.06"/><path class="cls-4" d="M305.88,378.62V352.44a5,5,0,1,0-10,0v26.18Z" transform="translate(-203.01 -252.87)"/><path class="cls-4" d="M333.81,378.62v-8.71H367v8.71h8.54v-13a4.27,4.27,0,0,0-4.27-4.27h-41.7a4.27,4.27,0,0,0-4.27,4.27v13Z" transform="translate(-203.01 -252.87)"/><path class="cls-4" d="M405,378.62V352.44a5,5,0,0,0-10,0v26.18Z" transform="translate(-203.01 -252.87)"/><path class="cls-4" d="M287.72,367a5,5,0,0,1-3.7-8.36l62.67-69.1a5,5,0,0,1,7.4,6.72l-62.67,69.1A5,5,0,0,1,287.72,367Z" transform="translate(-203.01 -252.87)"/><path class="cls-4" d="M413.06,367a5,5,0,0,1-3.7-1.64l-62.67-69.1a5,5,0,1,1,7.4-6.72l62.68,69.1a5,5,0,0,1-3.71,8.36Z" transform="translate(-203.01 -252.87)"/></svg>