<svg id="Layer_1" data-name="Layer 1" xmlns="http://www.w3.org/2000/svg" viewBox="0 0 302.46 302.46"><defs><style>.cls-1{fill:#f5f5f5;}.cls-2{fill:none;stroke:#f5f5f5;stroke-miterlimit:10;stroke-width:25px;}.cls-3{fill:#a11d21;}.cls-4{fill:#231f20;}</style></defs><circle class="cls-1" cx="151.23" cy="151.23" r="138.73"/><circle class="cls-2" cx="151.23" cy="151.23" r="138.73"/><path class="cls-3" d="M335.41,476.82a85.46,85.46,0,1,1,91.81-85.21c0,.7,0,1.4-.06,2.11h8.33c0-.7,0-1.41,0-2.11a93.77,93.77,0,1,0-100.11,93.55Z" transform="translate(-190.51 -240.37)"/><path class="cls-3" d="M335.41,451.74a60.47,60.47,0,1,1,66.81-60.13c0,.7,0,1.41-.06,2.11h8.3c0-.71.06-1.41.06-2.11a68.77,68.77,0,1,0-75.11,68.46Z" transform="translate(-190.51 -240.37)"/><path class="cls-4" d="M256.42,396.36c-.09-1.56-.14-3.14-.14-4.72a85.47,85.47,0,0,1,170.94,0c0,.71,0,1.41-.06,2.11h8.33c0-.7,0-1.4,0-2.11a93.77,93.77,0,0,0-187.54,0c0,1.58,0,3.16.12,4.72Z" transform="translate(-190.51 -240.37)"/><path class="cls-4" d="M281.47,396.36c-.12-1.56-.19-3.13-.19-4.72a60.47,60.47,0,0,1,120.94,0c0,.71,0,1.41-.06,2.11h8.3c0-.7.06-1.4.06-2.11a68.77,68.77,0,0,0-137.54,0c0,1.59.07,3.16.18,4.72Z" transform="translate(-190.51 -240.37)"/><path class="cls-4" d="M379.66,499.82a5,5,0,0,1-4.6-3l-41.92-98.36a5,5,0,0,1,6.34-6.64l102.85,38.33a5,5,0,0,1-.36,9.49l-40.78,11.75-16.84,45.22a5,5,0,0,1-4.57,3.25Zm-32.76-94.6,32.45,76.12,13.34-35.84a5,5,0,0,1,3.31-3.07l28.64-8.24Z" transform="translate(-190.51 -240.37)"/><path class="cls-3" d="M442.33,430.11,356,397.94H333a3.39,3.39,0,0,0,.17.48l41.92,98.36a5,5,0,0,0,4.6,3h.12a5,5,0,0,0,4.57-3.25l16.84-45.22L442,439.6a5,5,0,0,0,.36-9.49ZM396,442.43a5,5,0,0,0-3.31,3.07l-13.34,35.84L346.9,405.22l77.74,29Z" transform="translate(-190.51 -240.37)"/></svg>