<svg id="Layer_1" data-name="Layer 1" xmlns="http://www.w3.org/2000/svg" xmlns:xlink="http://www.w3.org/1999/xlink" viewBox="0 0 277.46 277.46"><defs><style>.cls-1{fill:#231f20;}.cls-2{fill:#f5f5f5;}.cls-3{fill:#a11d21;}.cls-4{clip-path:url(#clip-path);}</style><clipPath id="clip-path" transform="translate(-203.01 -252.87)"><path class="cls-1" d="M399.07,451.38H348.52V349.8a16.31,16.31,0,0,0,7.77-7.76h43V328.13h-43a16.28,16.28,0,0,0-29.44,0h-43V342h43a16.31,16.31,0,0,0,7.77,7.76V451.38h-50.2a4.25,4.25,0,0,0-4.23,4.23v4.56a4.24,4.24,0,0,0,4.23,4.23H399.07a4.24,4.24,0,0,0,4.23-4.23v-4.56A4.24,4.24,0,0,0,399.07,451.38ZM341.57,342a7,7,0,1,1,6.95-7A7,7,0,0,1,341.57,342Z"/></clipPath></defs><circle class="cls-2" cx="138.73" cy="138.73" r="138.73"/><path class="cls-3" d="M426.61,418.68a16.22,16.22,0,0,0,.5-3.22h-6.87l-22.78-54-23.18,54h46l1,2.29a3.27,3.27,0,0,0,3,2,3,3,0,0,0,1.31-.29,3.34,3.34,0,0,0,1.1-.82c-1.46,5.42-5.78,8.12-11.8,10.66-14,5.9-17.56,5.9-30.66,2.24-10.46-2.91-15.74-7.17-16.63-13.4a3.58,3.58,0,0,1-.2-3.21l27.18-63.39a3.27,3.27,0,0,1,3-2h0a3.29,3.29,0,0,1,3,2L427.19,415A3.53,3.53,0,0,1,426.61,418.68Z" transform="translate(-203.01 -252.87)"/><path class="cls-3" d="M427.11,415.46a16.22,16.22,0,0,1-.5,3.22,3.34,3.34,0,0,1-1.1.82,3,3,0,0,1-1.31.29,3.27,3.27,0,0,1-3-2l-1-2.29Z" transform="translate(-203.01 -252.87)"/><path class="cls-3" d="M313.84,418.24a16.32,16.32,0,0,0,.51-3.22h-6.88L284.7,361l-23.18,54h46l1,2.28a3.2,3.2,0,0,0,4.32,1.76,3.2,3.2,0,0,0,1.09-.82c-1.46,5.41-5.78,8.11-11.8,10.65-14,5.9-17.56,5.9-30.66,2.25-10.46-2.91-15.74-7.18-16.63-13.41a3.56,3.56,0,0,1-.2-3.2l27.19-63.39a3.26,3.26,0,0,1,3-2h0a3.25,3.25,0,0,1,3,2l26.7,63.39A3.54,3.54,0,0,1,313.84,418.24Z" transform="translate(-203.01 -252.87)"/><path class="cls-3" d="M314.35,415a16.32,16.32,0,0,1-.51,3.22,3.2,3.2,0,0,1-1.09.82,3.2,3.2,0,0,1-4.32-1.76l-1-2.28Z" transform="translate(-203.01 -252.87)"/><path class="cls-1" d="M399.07,451.38H348.52V349.8a16.31,16.31,0,0,0,7.77-7.76h43V328.13h-43a16.28,16.28,0,0,0-29.44,0h-43V342h43a16.31,16.31,0,0,0,7.77,7.76V451.38h-50.2a4.25,4.25,0,0,0-4.23,4.23v4.56a4.24,4.24,0,0,0,4.23,4.23H399.07a4.24,4.24,0,0,0,4.23-4.23v-4.56A4.24,4.24,0,0,0,399.07,451.38ZM341.57,342a7,7,0,1,1,6.95-7A7,7,0,0,1,341.57,342Z" transform="translate(-203.01 -252.87)"/><g class="cls-4"><rect class="cls-3" x="50.35" y="149.3" width="174.46" height="98.59"/><path class="cls-1" d="M313,418.9a16.22,16.22,0,0,0,.5-3.22h-6.88L283.8,361.63l-23.18,54.05h45.95l1,2.29a3.27,3.27,0,0,0,3,2,3.12,3.12,0,0,0,1.32-.29,3.21,3.21,0,0,0,1.1-.82c-1.46,5.42-5.79,8.12-11.81,10.66-14,5.9-17.55,5.9-30.66,2.25-10.45-2.92-15.74-7.18-16.62-13.41a3.55,3.55,0,0,1-.21-3.21l27.19-63.38a3.26,3.26,0,0,1,3-2h0a3.28,3.28,0,0,1,3,2l26.7,63.39A3.54,3.54,0,0,1,313,418.9Z" transform="translate(-203.01 -252.87)"/><path class="cls-1" d="M313.45,415.68a16.22,16.22,0,0,1-.5,3.22,3.21,3.21,0,0,1-1.1.82,3.12,3.12,0,0,1-1.32.29,3.27,3.27,0,0,1-3-2l-1-2.29Z" transform="translate(-203.01 -252.87)"/><path class="cls-1" d="M427,418.9a15.5,15.5,0,0,0,.51-3.22h-6.88l-22.77-54.05-23.18,54.05h45.95l1,2.29a3.27,3.27,0,0,0,3,2,3.12,3.12,0,0,0,1.32-.29,3.08,3.08,0,0,0,1.09-.82c-1.45,5.42-5.78,8.12-11.8,10.66-14,5.9-17.56,5.9-30.66,2.25-10.46-2.92-15.74-7.18-16.63-13.41a3.58,3.58,0,0,1-.2-3.21l27.19-63.38a3.25,3.25,0,0,1,3-2h0a3.25,3.25,0,0,1,3,2l26.71,63.39A3.54,3.54,0,0,1,427,418.9Z" transform="translate(-203.01 -252.87)"/><path class="cls-1" d="M427.47,415.68a15.5,15.5,0,0,1-.51,3.22,3.08,3.08,0,0,1-1.09.82,3.12,3.12,0,0,1-1.32.29,3.27,3.27,0,0,1-3-2l-1-2.29Z" transform="translate(-203.01 -252.87)"/><path class="cls-1" d="M427,418.9a15.5,15.5,0,0,0,.51-3.22h-6.88l-22.77-54.05-23.18,54.05h45.95l1,2.29a3.27,3.27,0,0,0,3,2,3.12,3.12,0,0,0,1.32-.29,3.08,3.08,0,0,0,1.09-.82c-1.45,5.42-5.78,8.12-11.8,10.66-14,5.9-17.56,5.9-30.66,2.25-10.46-2.92-15.74-7.18-16.63-13.41a3.58,3.58,0,0,1-.2-3.21l27.19-63.38a3.25,3.25,0,0,1,3-2h0a3.25,3.25,0,0,1,3,2l26.71,63.39A3.54,3.54,0,0,1,427,418.9Z" transform="translate(-203.01 -252.87)"/><path class="cls-1" d="M427.47,415.68a15.5,15.5,0,0,1-.51,3.22,3.08,3.08,0,0,1-1.09.82,3.12,3.12,0,0,1-1.32.29,3.27,3.27,0,0,1-3-2l-1-2.29Z" transform="translate(-203.01 -252.87)"/><path class="cls-1" d="M314.2,418.46a16.34,16.34,0,0,0,.5-3.22h-6.88l-22.77-54.05-23.18,54.05h45.95l1,2.29a3.21,3.21,0,0,0,4.32,1.75,3.34,3.34,0,0,0,1.1-.82c-1.46,5.41-5.79,8.11-11.81,10.66-14,5.89-17.55,5.89-30.66,2.24-10.45-2.91-15.74-7.18-16.62-13.41a3.53,3.53,0,0,1-.21-3.2l27.19-63.39a3.27,3.27,0,0,1,3-2h0a3.29,3.29,0,0,1,3,2l26.7,63.39A3.56,3.56,0,0,1,314.2,418.46Z" transform="translate(-203.01 -252.87)"/><path class="cls-1" d="M314.7,415.24a16.34,16.34,0,0,1-.5,3.22,3.34,3.34,0,0,1-1.1.82,3.21,3.21,0,0,1-4.32-1.75l-1-2.29Z" transform="translate(-203.01 -252.87)"/><path class="cls-1" d="M427,418.9a15.5,15.5,0,0,0,.51-3.22h-6.88l-22.77-54.05-23.18,54.05h45.95l1,2.29a3.27,3.27,0,0,0,3,2,3.12,3.12,0,0,0,1.32-.29,3.08,3.08,0,0,0,1.09-.82c-1.45,5.42-5.78,8.12-11.8,10.66-14,5.9-17.56,5.9-30.66,2.25-10.46-2.92-15.74-7.18-16.63-13.41a3.58,3.58,0,0,1-.2-3.21l27.19-63.38a3.25,3.25,0,0,1,3-2h0a3.25,3.25,0,0,1,3,2l26.71,63.39A3.54,3.54,0,0,1,427,418.9Z" transform="translate(-203.01 -252.87)"/><path class="cls-1" d="M427.47,415.68a15.5,15.5,0,0,1-.51,3.22,3.08,3.08,0,0,1-1.09.82,3.12,3.12,0,0,1-1.32.29,3.27,3.27,0,0,1-3-2l-1-2.29Z" transform="translate(-203.01 -252.87)"/><path class="cls-1" d="M314.2,418.46a16.34,16.34,0,0,0,.5-3.22h-6.88l-22.77-54.05-23.18,54.05h45.95l1,2.29a3.21,3.21,0,0,0,4.32,1.75,3.34,3.34,0,0,0,1.1-.82c-1.46,5.41-5.79,8.11-11.81,10.66-14,5.89-17.55,5.89-30.66,2.24-10.45-2.91-15.74-7.18-16.62-13.41a3.53,3.53,0,0,1-.21-3.2l27.19-63.39a3.27,3.27,0,0,1,3-2h0a3.29,3.29,0,0,1,3,2l26.7,63.39A3.56,3.56,0,0,1,314.2,418.46Z" transform="translate(-203.01 -252.87)"/><path class="cls-1" d="M314.7,415.24a16.34,16.34,0,0,1-.5,3.22,3.34,3.34,0,0,1-1.1.82,3.21,3.21,0,0,1-4.32-1.75l-1-2.29Z" transform="translate(-203.01 -252.87)"/></g><path class="cls-1" d="M379.23,405l18.59-43.36L416.08,405h7.16l-22.4-53.16a3.25,3.25,0,0,0-3-2h0a3.25,3.25,0,0,0-3,2L372.05,405Z" transform="translate(-203.01 -252.87)"/><path class="cls-1" d="M266.27,405l18.78-43.8L303.5,405h7.16l-22.58-53.61a3.29,3.29,0,0,0-3-2h0a3.27,3.27,0,0,0-3,2l-23,53.63Z" transform="translate(-203.01 -252.87)"/></svg>